Coordinates
version=1
nRows=8
nColumns=36
inDegrees=yes

Units are S.I. units (second, meters, Newtons, ...)
If the header above contains a line with 'inDegrees', this indicates whether rotational values are in degrees (yes) or radians (no).

endheader
time	pelvis_tilt	pelvis_list	pelvis_rotation	pelvis_tx	pelvis_ty	pelvis_tz	hip_flexion_r	hip_adduction_r	hip_rotation_r	knee_angle_r	knee_angle_r_beta	ankle_angle_r	subtalar_angle_r	mtp_angle_r	hip_flexion_l	hip_adduction_l	hip_rotation_l	knee_angle_l	knee_angle_l_beta	ankle_angle_l	subtalar_angle_l	mtp_angle_l	lumbar_extension	lumbar_bending	lumbar_rotation	arm_flex_r	arm_add_r	arm_rot_r	elbow_flex_r	pro_sup_r	arm_flex_l	arm_add_l	arm_rot_l	elbow_flex_l	pro_sup_l
      4.31666670	    -12.47986313	      0.09881033	     -6.16109593	      0.70948604	      0.89428089	      0.15311725	     23.54369292	     -3.92744032	     -1.15763179	     18.35783931	      0.32040474	      8.88296269	    -15.26980241	     -7.49999987	     21.70644941	    -10.34034008	    -12.12845084	     18.41367417	      0.32137924	      6.88632215	     -7.03354640	     -7.49999987	    -12.93600506	      1.56666109	     -1.02844221	     -1.33626712	    -15.17246073	      3.18693197	     27.46130332	     91.52780922	     -8.77136365	    -11.20242868	      9.06695621	     31.83052561	     89.75719499
      4.33333330	    -12.28503119	     -0.06607298	     -6.30735055	      0.71404374	      0.89862722	      0.15097917	     22.05262020	     -3.68039451	     -1.36155541	     16.21510327	      0.28300694	      8.45621510	    -14.09322064	     -7.49999987	     20.14283793	    -10.23243320	    -12.17727251	     16.01975663	      0.27959750	      5.91720944	     -6.72947990	     -7.49999987	    -11.75058460	      1.66018374	     -1.25875465	     -3.79694047	    -14.68559230	      1.27026872	     24.92410072	     90.24827405	    -10.84188102	    -10.34120756	      9.58940278	     29.53768800	     88.56675870
      4.35000000	    -11.88877138	     -0.41941633	     -6.49329946	      0.71666638	      0.90618971	      0.15560678	     20.28611523	     -3.04205913	     -1.30970602	     13.87399007	      0.24214681	      7.82354118	    -13.65864359	     -7.49999987	     18.30842326	    -10.35929603	    -12.23649686	     13.59038125	      0.23719690	      4.98055821	     -6.34885868	     -7.49999987	    -11.24238577	      1.84698712	     -1.44694029	     -5.91098815	    -14.30394148	     -0.06039726	     23.78990976	     89.61033607	    -12.05413300	    -10.09937163	      9.65533449	     27.67147507	     87.82172724
      4.36666670	    -12.08287641	     -0.64706630	     -6.58795688	      0.71777857	      0.90916130	      0.15560840	     19.16422866	     -2.66731293	     -1.47061456	     11.78334064	      0.20565809	      6.69399347	    -12.98685903	     -7.49999987	     17.19363089	    -10.41095481	    -11.90866195	     11.36538583	      0.19836340	      4.18992062	     -5.62149797	     -7.49999987	     -9.96190386	      1.99842185	     -1.68037768	     -8.19731332	    -14.10549411	     -0.43882091	     22.44210206	     89.43882572	    -13.12695183	    -10.08948242	      9.69401930	     27.21488460	     87.63337239
      4.38333330	    -11.89076529	     -0.85781785	     -6.61548109	      0.71719986	      0.90680906	      0.15572066	     17.66289446	     -2.34495281	     -1.33539966	      9.65304597	      0.16847744	      5.62085233	    -12.83752275	     -7.49999987	     15.80831649	    -10.38038735	    -11.61823530	      9.35680769	      0.16330710	      3.73368560	     -5.13156191	     -7.49999987	     -9.55202235	      2.05144699	     -0.99631817	    -10.91790259	    -13.23081657	     -6.48105579	     21.26104240	     87.74062910	    -13.30319075	    -10.78182931	     11.37308441	     27.20387409	     84.41083069
      4.40000000	    -11.95489538	     -1.10696654	     -6.54502294	      0.72147347	      0.90478097	      0.15786989	     16.57699695	     -1.99038476	     -1.42945351	      7.93620334	      0.13851288	      4.69620339	    -12.57904949	     -7.49999987	     14.86148973	    -10.49341350	    -11.49895329	      7.59381957	      0.13253715	      3.14080713	     -4.96943990	     -7.49999987	     -8.69816447	      2.10470552	     -1.00024938	    -12.96513850	    -13.36063381	     -7.00451082	     21.01325980	     86.86779259	    -14.46339512	    -11.56301931	     11.48229349	     28.76377493	     83.44051728
      4.41666670	    -11.94443197	     -1.35162318	     -6.33291138	      0.72710246	      0.90342099	      0.15778790	     15.49512748	     -1.72899942	     -1.58366564	      6.56249231	      0.11453710	      4.15285015	    -12.55514088	     -7.49999987	     13.92762102	    -10.54231067	    -11.41399253	      6.19719571	      0.10816147	      2.98177883	     -4.86940451	     -7.49999987	     -7.91912280	      2.16383986	     -1.08055049	    -14.84958017	    -13.31608972	     -7.98802851	     21.54142583	     85.78258941	    -15.76540180	    -12.37461260	     11.48952822	     30.32778420	     82.39542961
      4.43333330	    -11.94308483	     -1.52513461	     -6.15701358	      0.72807781	      0.90850382	      0.15693527	     14.52848893	     -1.54872892	     -1.78549948	      5.24774360	      0.09159040	      3.63826160	    -12.30046514	     -7.49999987	     13.12054659	    -10.56477949	    -11.56962412	      4.95012539	      0.08639599	      2.77636057	     -4.68227028	     -7.49999987	     -7.35380127	      2.24209271	     -0.86491805	    -16.85810445	    -12.50186373	    -14.61767628	     23.82470872	     86.20067648	    -16.70586618	    -13.12944125	     11.28143595	     32.81883664	     82.51853288
